<svg xmlns="http://www.w3.org/2000/svg" width="1044" height="241" fill="none"><path fill="#fff" d="M323.49 27.64H283.2v183.3h40.28v-36.5l15.06-15.7 33.72 52.2h45.82l-52.2-80.58 50.24-52.32H366.4l-42.91 45.95V27.64ZM740.62 37.34h-39.8v40.7h-23.07v32.82h23.07v69.95c0 9.78 2.49 17.4 7.72 22.54 5.24 5.15 12.96 7.6 22.89 7.6h34.86v-32.12h-25.67v-67.97h25.67V78.04h-25.67v-40.7Z"/><path fill="#fff" fill-rule="evenodd" d="M479.56 75.67C459.9 75.67 444 81.74 432 94c-11.86 12.34-17.7 29.24-17.7 50.5 0 21.03 5.76 37.83 17.45 50.25 11.7 12.43 27.86 18.57 48.3 18.57 16.64 0 30.68-3.93 42.03-11.87h.01c11.34-8.19 18.42-19 21.18-32.4l.37-1.8h-39.49l-.34 1.03c-1.37 4.2-4.15 7.59-8.45 10.18-4.22 2.52-9.38 3.81-15.55 3.81-7.52 0-13.44-2.08-17.92-6.11-4.47-4.1-6.72-9.45-6.72-16.16v-5.48h86.07l.16-1.33a136 136 0 0 0 .96-15.9c0-19.01-5.75-34.07-17.39-44.98-11.37-11.13-26.56-16.63-45.4-16.63Zm-17.94 36.72c4.31-3.74 10.09-5.67 17.47-5.67 7.14 0 12.75 1.9 17 5.55l.02.02c4.29 3.56 6.43 8.22 6.43 14.1v.86h-47.38v-.39c0-6.05 2.15-10.83 6.44-14.46l.02-.01ZM611.82 75.67c-16.85 0-30.38 3.76-40.42 11.43-10.03 7.73-15.03 18.44-15.03 31.96 0 10.55 3.3 19.2 10 25.8 6.66 6.55 16.54 10.94 29.45 13.3h.01l23.1 3.79h.02c3.88.54 6.77 1.58 8.79 3.04v.01h.02c1.85 1.3 3.12 3.72 3.5 7.72a9.48 9.48 0 0 1-4.32 8.27l-.02.01c-2.87 2.03-7.17 3.16-13.09 3.16-6.5 0-11.37-1.42-14.8-4.06-3.29-2.6-4.99-6.3-4.99-11.36v-1.5h-39.68v1.5c0 13.56 5.34 24.45 15.97 32.55 10.68 8.07 25.16 12.02 43.27 12.02 17.7 0 31.87-3.83 42.3-11.66 10.58-7.87 15.87-18.82 15.87-32.67 0-10.9-3.12-19.73-9.5-26.28-6.37-6.52-15.8-10.63-28.1-12.47l-22.36-3.67h-.02c-2.77-.39-4.67-.66-5.7-.82-.82-.2-1.9-.6-3.24-1.2a14.77 14.77 0 0 1-3.75-2.47c-1.77-1.57-2.69-3.67-2.69-6.44 0-3.52 1.27-6.08 3.76-7.9 2.57-1.87 6.3-2.9 11.42-2.9 5.86 0 10.02 1.2 12.72 3.36 2.64 2.12 4.12 5.35 4.23 9.96l.03 1.46h39.58l-.05-1.55c-.4-12.98-5.66-23.34-15.74-30.96-10.04-7.68-23.6-11.43-40.54-11.43ZM655 200.45l.9 1.2-.9-1.2Zm-56.9-19.17.92-1.19.01.01-.93 1.18Zm34.66-8.63-1.5.13v-.13h1.5ZM930.3 75.67c-17.58 0-31.8 3.96-42.55 12.01-10.73 8.03-16.59 19.5-17.64 34.23l-.11 1.6h39.33l.1-1.39c.37-4.95 2.16-8.6 5.25-11.13 3.2-2.62 7.78-4.03 13.96-4.03 6.2 0 10.59 1.48 13.42 4.2 2.82 2.69 4.35 6.84 4.35 12.75v6.06h-32.8c-14.84 0-26.77 3.7-35.64 11.25-8.82 7.5-13.19 17.8-13.19 30.72 0 12.48 3.87 22.6 11.7 30.18l.01.01c7.91 7.5 18.45 11.18 31.44 11.18 9.91 0 18.68-2.02 26.27-6.1 6.91-3.79 11.82-8.78 14.6-15l.35 2.2v.03c1 5.64 3.37 9.95 7.25 12.68l.02.01c3.84 2.63 9.66 3.81 17.17 3.81h28.71v-28.68h-15.97v-57.64c0-13.54-4.5-25.11-13.53-34.63-8.93-9.66-23.22-14.32-42.5-14.32Zm-25.12 90.59c0-3.8 1.27-6.44 3.67-8.2 2.49-1.8 6.4-2.84 11.98-2.84h25.58v3.11c0 7.56-2.29 13.4-6.75 17.73-4.47 4.24-10.6 6.44-18.6 6.44-5.65 0-9.62-1.06-12.14-2.93-2.44-1.8-3.74-4.54-3.74-8.46v-4.85Z" clip-rule="evenodd"/><path fill="#fff" d="M818.5 78.04c-13.67 0-23.18 3.59-27.69 11.4a35.43 35.43 0 0 0-4.07 9.88v.02a56.61 56.61 0 0 0-.98 11.44v100.16h39.8V110.86h38.57V78.04H818.5Z"/><path fill="#F62E76" d="M1028.68 211.05c-4.29 0-7.85-1.36-10.67-4.08a14.6 14.6 0 0 1-4.06-10.47c0-4.15 1.35-7.58 4.06-10.3 2.82-2.84 6.38-4.26 10.67-4.26 4.17 0 7.61 1.42 10.32 4.26 2.71 2.72 4.06 6.16 4.06 10.3a14.6 14.6 0 0 1-4.06 10.47c-2.71 2.72-6.15 4.08-10.32 4.08Z"/><path fill="#A950FF" d="M115.37 101.15a8.36 8.36 0 0 1 11.82 0l13.42 13.42a8.36 8.36 0 0 1 0 11.82l-13.42 13.41a8.36 8.36 0 0 1-11.82 0l-13.42-13.41a8.36 8.36 0 0 1 0-11.82l13.42-13.42ZM177.17 101.04c3.2-3.2 8.4-3.2 11.61 0l13.63 13.63c3.2 3.2 3.2 8.4 0 11.61l-13.63 13.63a8.21 8.21 0 0 1-11.61 0l-13.63-13.63a8.21 8.21 0 0 1 0-11.61l13.63-13.63Z"/><path fill="#E9C1FF" d="M115.48 39.35a8.2 8.2 0 0 1 11.6 0l13.64 13.63c3.2 3.2 3.2 8.4 0 11.6l-13.64 13.64a8.2 8.2 0 0 1-11.6 0l-13.63-13.63a8.2 8.2 0 0 1 0-11.61l13.63-13.63Z"/><path fill="#CD88FF" d="M109.77 83.72a8.36 8.36 0 0 1 0 11.82l-13.42 13.42a8.36 8.36 0 0 1-11.82 0L71.1 95.54a8.36 8.36 0 0 1 0-11.82L84.53 70.3a8.36 8.36 0 0 1 11.82 0l13.42 13.42Z"/><path fill="#A950FF" d="M79.02 114.67c3.2 3.2 3.2 8.4 0 11.61L65.4 139.91a8.2 8.2 0 0 1-11.6 0l-13.64-13.63a8.21 8.21 0 0 1 0-11.61l13.63-13.63a8.2 8.2 0 0 1 11.61 0l13.63 13.63Z"/><path fill="#CD88FF" d="M171.46 83.72a8.36 8.36 0 0 1 0 11.82l-13.42 13.42a8.36 8.36 0 0 1-11.82 0L132.8 95.54a8.36 8.36 0 0 1 0-11.82l13.42-13.42a8.36 8.36 0 0 1 11.82 0l13.42 13.42Z"/><path fill="#F62E76" d="M134.49 171.84a18.67 18.67 0 1 1-26.41 26.4 18.67 18.67 0 0 1 26.4-26.4Z"/></svg>